<?xml version="1.0" standalone="no"?>
<!DOCTYPE svg PUBLIC "-//W3C//DTD SVG 20010904//EN"
 "http://www.w3.org/TR/2001/REC-SVG-20010904/DTD/svg10.dtd">
<svg version="1.0" xmlns="http://www.w3.org/2000/svg"
 width="310.000000pt" height="310.000000pt" viewBox="0 0 310.000000 310.000000"
 preserveAspectRatio="xMidYMid meet">
<metadata>
Created by potrace 1.14, written by Peter Selinger 2001-2017
</metadata>
<g transform="translate(0.000000,310.000000) scale(0.100000,-0.100000)"
fill="#000000" stroke="none">
<path d="M1159 2822 c-21 -2 -38 -23 -95 -123 -38 -67 -84 -146 -102 -177 -18
-32 -38 -68 -45 -82 -6 -14 -17 -31 -24 -38 -7 -7 -13 -20 -13 -28 0 -8 -7
-17 -15 -20 -8 -4 -15 -14 -15 -24 0 -10 -7 -23 -15 -30 -8 -7 -15 -19 -15
-26 0 -8 -4 -14 -8 -14 -5 0 -14 -16 -22 -35 -8 -19 -17 -35 -21 -35 -4 0 -11
-9 -14 -21 -4 -11 -26 -53 -49 -92 -24 -40 -54 -92 -68 -117 -14 -25 -44 -77
-67 -117 -22 -39 -49 -87 -60 -105 -10 -18 -27 -49 -37 -68 -11 -19 -21 -37
-24 -40 -3 -3 -12 -19 -21 -35 -9 -17 -51 -91 -94 -165 -43 -74 -86 -148 -94
-165 -9 -16 -19 -32 -22 -35 -7 -5 -52 -86 -101 -180 -35 -68 -33 -85 28 -197
26 -48 53 -98 58 -110 6 -13 14 -23 19 -23 4 0 7 -6 7 -14 0 -7 7 -19 15 -26
8 -7 13 -16 10 -20 -2 -4 4 -15 15 -25 11 -10 20 -22 20 -27 0 -5 13 -29 30
-53 17 -24 30 -48 30 -54 0 -6 3 -11 8 -11 4 0 14 -15 21 -32 16 -35 90 -136
116 -158 9 -8 49 -15 93 -17 42 -2 92 -5 110 -7 17 -2 32 1 32 6 0 5 5 6 11 2
7 -4 39 -9 73 -10 100 -6 1765 -12 1785 -7 10 3 25 17 32 31 21 42 128 233
154 277 14 22 43 72 65 110 22 39 45 77 50 85 12 19 78 136 97 172 12 24 12
31 -3 60 -10 18 -19 38 -20 44 -1 6 -14 29 -28 52 -14 23 -26 44 -26 47 0 3
-16 30 -35 60 -19 30 -31 55 -27 55 4 0 3 4 -3 8 -5 4 -19 23 -29 42 -26 47
-154 268 -177 305 -11 17 -26 44 -34 60 -9 17 -29 53 -46 80 -16 28 -33 57
-36 65 -4 8 -10 17 -13 20 -4 3 -20 30 -37 60 -47 85 -260 455 -296 513 -18
29 -39 64 -46 80 -8 15 -18 27 -23 27 -4 0 -8 9 -8 20 0 11 -4 20 -10 20 -5 0
-10 5 -10 10 0 21 -133 231 -153 242 -19 10 -705 19 -778 10z m437 -768 c13
-24 36 -65 51 -91 14 -27 33 -61 41 -78 9 -16 20 -33 25 -36 5 -3 9 -10 9 -15
1 -8 25 -52 82 -147 10 -18 30 -53 45 -79 14 -25 60 -106 102 -180 42 -73 86
-150 98 -170 11 -21 30 -54 41 -73 11 -19 30 -52 41 -72 12 -21 29 -49 39 -63
26 -39 32 -62 18 -72 -16 -10 -1285 -11 -1292 0 -5 9 43 114 58 124 6 4 7 8 2
8 -5 0 -2 8 6 18 8 9 32 49 53 87 21 39 48 86 61 105 13 19 24 40 24 46 0 7 3
14 8 16 7 3 18 22 63 103 12 22 33 58 47 80 14 22 24 40 21 41 -2 0 4 8 14 18
9 10 15 21 12 26 -3 5 -1 10 3 12 4 1 39 57 77 123 38 66 73 122 77 123 5 2 6
7 3 12 -3 4 2 13 10 20 8 7 15 16 15 21 0 12 76 130 97 152 17 17 18 17 22 1
1 -9 14 -37 27 -60z"/>
</g>
</svg>
